<?xml version="1.0" encoding="UTF-8"?>
<svg width="19px" height="19px" viewBox="0 0 19 19" version="1.1" xmlns="http://www.w3.org/2000/svg" xmlns:xlink="http://www.w3.org/1999/xlink">
    <defs></defs>
    <g id="Icons" stroke="none" stroke-width="1" fill="none" fill-rule="evenodd" transform="translate(-903.000000, -330.000000)">
        <g transform="translate(415.000000, 327.000000)" fill="#8094A1" id="Shape">
            <path d="M497.521064,21.5182504 C492.547571,21.5182504 488.501167,17.4671833 488.501167,12.4877794 C488.501167,7.50759016 492.547571,3.4565231 497.521064,3.4565231 C502.494557,3.4565231 506.540961,7.50759016 506.540961,12.4877794 C506.540961,17.4671833 502.494557,21.5182504 497.521064,21.5182504 Z M497.521064,5.46399255 C493.652705,5.46399255 490.505937,8.61421162 490.505937,12.4877794 C490.505937,16.3605618 493.652705,19.5115663 497.521064,19.5115663 C501.389424,19.5115663 504.536191,16.3605618 504.536191,12.4877794 C504.536191,8.61421162 501.389424,5.46399255 497.521064,5.46399255 Z M500.689009,15.4927004 C500.492924,15.6882638 500.236445,15.7864382 499.980751,15.7864382 C499.724272,15.7864382 499.467793,15.6882638 499.271709,15.4927004 L497.521064,13.739699 L495.77042,15.4927004 C495.574335,15.6882638 495.317856,15.7864382 495.061377,15.7864382 C494.804899,15.7864382 494.54842,15.6882638 494.353119,15.4927004 C493.961734,15.1007884 493.961734,14.4654039 494.353119,14.0734918 L496.103764,12.3204903 L494.353119,10.5674888 C493.961734,10.1755768 493.961734,9.54019225 494.353119,9.14828018 C494.744504,8.75636811 495.37825,8.75636811 495.77042,9.14828018 L497.521064,10.9012817 L499.271709,9.14828018 C499.663094,8.75636811 500.297624,8.75636811 500.689009,9.14828018 C501.080394,9.54019225 501.080394,10.1755768 500.689009,10.5674888 L498.938365,12.3204903 L500.689009,14.0734918 C501.080394,14.4654039 501.080394,15.1007884 500.689009,15.4927004 Z"></path>
        </g>
    </g>
</svg>
