<?xml version="1.0" encoding="UTF-8"?>
<svg width="24px" height="24px" viewBox="0 0 24 24" version="1.1" xmlns="http://www.w3.org/2000/svg" xmlns:xlink="http://www.w3.org/1999/xlink">
    <!-- Generator: Sketch 49 (51002) - http://www.bohemiancoding.com/sketch -->
    <title>Shape</title>
    <desc>Created with Sketch.</desc>
    <defs></defs>
    <g id="Page-1" stroke="none" stroke-width="1" fill="none" fill-rule="evenodd">
        <g id="Icons" transform="translate(-997.000000, -464.000000)" fill="#8094A1">
            <g transform="translate(415.000000, 327.000000)" id="Shape">
                <path d="M604.023306,151.849827 L603.049941,152.012404 C602.976997,152.207182 602.896211,152.401174 602.808365,152.594382 L603.383285,153.403338 C604.008403,154.282195 603.908792,155.472854 603.146415,156.236258 L601.821666,157.561219 C601.074976,158.30813 599.83572,158.406304 598.990203,157.797623 L598.188608,157.224285 C597.998798,157.310678 597.804282,157.391574 597.606629,157.465401 L597.441134,158.442432 C597.263089,159.505072 596.351687,160.2779 595.273221,160.2779 L593.397866,160.2779 C592.318616,160.2779 591.407214,159.505072 591.229954,158.439291 L591.067596,157.464615 C590.884845,157.396286 590.7068,157.323244 590.531892,157.24392 L589.709121,157.831395 C588.864388,158.438505 587.627485,158.337975 586.883932,157.591849 L585.559968,156.267674 C584.796022,155.509768 584.694842,154.316753 585.323098,153.434754 L585.890175,152.645432 C585.802329,152.454581 585.720757,152.261374 585.646245,152.065025 L584.647782,151.894595 C583.587356,151.714739 582.81635,150.80211 582.81635,149.724548 L582.81635,147.851382 C582.81635,146.770678 583.58814,145.857264 584.650919,145.678979 L585.603891,145.518759 C585.676834,145.320054 585.756053,145.12449 585.84233,144.932854 L585.256429,144.108189 C584.630526,143.228547 584.730922,142.037888 585.494083,141.27527 L586.822754,139.948738 C587.54513,139.211252 588.806347,139.101297 589.655786,139.715475 L590.444831,140.284887 C590.635425,140.196923 590.829157,140.115241 591.024457,140.040629 L591.194659,139.041607 C591.372703,137.979753 592.284105,137.207709 593.362571,137.207709 L595.234004,137.207709 C596.310901,137.207709 597.223087,137.978967 597.401917,139.043177 L597.562706,139.998218 C597.776831,140.077542 597.989386,140.164721 598.199589,140.261325 L599.006674,139.68563 C599.838073,139.083232 601.082819,139.175909 601.830294,139.92282 L603.155827,141.249352 C603.919773,142.006472 604.020168,143.198702 603.392697,144.081486 L602.817777,144.886516 C602.904054,145.078152 602.984841,145.272145 603.058569,145.470064 L604.035071,145.635782 C605.106478,145.816423 605.872777,146.733765 605.858659,147.818395 L605.858659,149.679781 C605.858659,150.759699 605.086869,151.672328 604.023306,151.849827 Z M604.093896,147.805829 C604.097033,147.587489 603.948793,147.412346 603.741728,147.378574 C603.740944,147.378574 603.740944,147.378574 603.739375,147.377788 L602.245994,147.124106 C601.91814,147.068343 601.649112,146.832724 601.551069,146.514639 C601.411457,146.063037 601.231059,145.625572 601.013797,145.214025 C600.856929,144.917931 600.881244,144.559791 601.07576,144.287259 L601.955788,143.054975 C602.078145,142.882973 602.060105,142.648925 601.911081,142.501271 L600.583195,141.172383 C600.433386,141.023158 600.198869,141.002738 600.035727,141.121332 L598.794118,142.006472 C598.521953,142.19968 598.165078,142.223241 597.870167,142.066948 C597.434859,141.836827 596.982295,141.650689 596.526594,141.513244 C596.205015,141.416641 595.965792,141.14568 595.910104,140.813458 L595.661469,139.336915 C595.626173,139.126429 595.44656,138.974063 595.234004,138.974063 L593.362571,138.974063 C593.149231,138.974063 592.969617,139.126429 592.934322,139.33613 L592.676275,140.852727 C592.620587,141.181022 592.385285,141.449627 592.068412,141.548587 C591.627614,141.685246 591.194659,141.868243 590.780528,142.091295 C590.483263,142.251516 590.120899,142.227954 589.845596,142.030034 L588.623596,141.148821 C588.462806,141.032583 588.214171,141.051432 588.076127,141.192803 L586.740398,142.527189 C586.590589,142.676414 586.570981,142.910462 586.693338,143.083249 L587.582778,144.333598 C587.775725,144.604559 587.80004,144.961128 587.645525,145.255651 C587.430616,145.667198 587.252571,146.104663 587.117665,146.55548 C587.021191,146.877492 586.750594,147.117037 586.419603,147.1728 L584.943478,147.42177 C584.733275,147.457113 584.581113,147.637754 584.581113,147.851382 L584.581113,149.724548 C584.581113,149.93739 584.734059,150.117246 584.944262,150.152589 L586.457252,150.411769 C586.783537,150.467532 587.05178,150.702365 587.150607,151.018094 C587.29022,151.463413 587.47297,151.897736 587.694154,152.310069 C587.854159,152.606948 587.830629,152.9698 587.63376,153.244689 L586.757653,154.463621 C586.636865,154.634052 586.655689,154.867314 586.805498,155.014969 L588.131815,156.343072 C588.283193,156.493867 588.516926,156.513502 588.683205,156.394122 L589.933442,155.501128 C590.086388,155.392744 590.266001,155.337766 590.445615,155.337766 C590.586012,155.337766 590.727193,155.370753 590.855824,155.439082 C591.245641,155.64407 591.668399,155.817642 592.112335,155.955872 C592.430777,156.054832 592.666078,156.325007 592.720982,156.654088 L592.970402,158.148694 C593.005697,158.358395 593.185311,158.511547 593.397866,158.511547 L595.273221,158.511547 C595.485777,158.511547 595.666175,158.358395 595.700685,158.147909 L595.954811,156.651732 C596.010499,156.323437 596.245801,156.053261 596.564243,155.955086 C597.016022,155.816072 597.452114,155.634645 597.859186,155.417876 C598.154098,155.260797 598.514109,155.285145 598.786275,155.479923 L600.017687,156.361921 C600.183182,156.480516 600.422406,156.464808 600.574567,156.311656 L601.899316,154.986694 C602.049125,154.836684 602.069517,154.601851 601.946376,154.428279 L601.065564,153.191282 C600.872616,152.919535 600.848302,152.56218 601.003601,152.266872 C601.22949,151.836475 601.410673,151.400581 601.540873,150.97097 C601.638131,150.649744 601.908728,150.411769 602.239719,150.356791 L603.7331,150.107036 C603.942519,150.071693 604.093896,149.892623 604.093896,149.679781 L604.093896,147.805829 Z M594.337504,153.252542 C591.853503,153.252542 589.832262,151.229365 589.832262,148.742805 C589.832262,146.256244 591.853503,144.233067 594.337504,144.233067 C596.82229,144.233067 598.842747,146.256244 598.842747,148.742805 C598.842747,151.229365 596.82229,153.252542 594.337504,153.252542 Z M594.337504,146.000206 C592.826868,146.000206 591.597024,147.230134 591.597024,148.742805 C591.597024,150.255475 592.826868,151.485404 594.337504,151.485404 C595.848926,151.485404 597.077985,150.255475 597.077985,148.742805 C597.077985,147.230134 595.848926,146.000206 594.337504,146.000206 Z"></path>
            </g>
        </g>
    </g>
</svg>