
<svg width="8px" height="8px" viewBox="0 0 8 8" version="1.1" xmlns="http://www.w3.org/2000/svg" xmlns:xlink="http://www.w3.org/1999/xlink">
    <!-- Generator: Sketch 49 (51002) - http://www.bohemiancoding.com/sketch -->
    <desc>Created with Sketch.</desc>
    <defs></defs>
    <g id="Page-1" stroke="none" stroke-width="1" fill="none" fill-rule="evenodd">
        <g id="Elements" transform="translate(-755.000000, -4000.000000)" fill="#989898">
            <g id="Tags-&amp;-Pointers" transform="translate(149.000000, 3860.000000)">
                <g id="Tag" transform="translate(513.000000, 125.000000)">
                    <path d="M100.644,21.027 C101.096,21.479 101.096,22.214 100.644,22.667 C100.417,22.894 100.121,23.007 99.825,23.007 C99.528,23.007 99.232,22.894 99.006,22.667 L96.982,20.641 L94.958,22.667 C94.732,22.894 94.435,23.007 94.139,23.007 C93.843,23.007 93.546,22.894 93.32,22.667 C92.868,22.214 92.868,21.479 93.32,21.027 L95.344,19 L93.32,16.974 C92.868,16.521 92.868,15.786 93.32,15.333 C93.773,14.88 94.506,14.88 94.958,15.333 L96.982,17.36 L99.006,15.333 C99.458,14.88 100.191,14.88 100.644,15.333 C101.096,15.786 101.096,16.521 100.644,16.974 L98.62,19 L100.644,21.027 Z" id="Shape"></path>
                </g>
            </g>
        </g>
    </g>
</svg>
